<svg width="927" height="540" viewBox="0 0 927 540" fill="none" xmlns="http://www.w3.org/2000/svg">
<g style="mix-blend-mode:screen" opacity="0.5">
<rect x="817.27" y="796.556" width="707.541" height="707.541" rx="353.771" transform="rotate(180 817.27 796.556)" fill="#D9D9D9" fill-opacity="0.01"/>
<rect x="817.27" y="796.556" width="707.541" height="707.541" rx="353.771" transform="rotate(180 817.27 796.556)" fill="url(#paint0_linear_0_1)"/>
<rect x="817.02" y="796.306" width="707.041" height="707.041" rx="353.521" transform="rotate(180 817.02 796.306)" stroke="#E0E0E0" stroke-opacity="0.1" stroke-width="0.5"/>
</g>
<g style="mix-blend-mode:screen" opacity="0.25">
<rect x="905.475" y="884.761" width="883.95" height="883.95" rx="441.975" transform="rotate(180 905.475 884.761)" fill="url(#paint1_linear_0_1)"/>
<rect x="905.225" y="884.511" width="883.45" height="883.45" rx="441.725" transform="rotate(180 905.225 884.511)" stroke="#E0E0E0" stroke-opacity="0.1" stroke-width="0.5"/>
</g>
<rect x="726.021" y="705.307" width="525.043" height="525.043" rx="262.522" transform="rotate(180 726.021 705.307)" fill="url(#paint2_linear_0_1)"/>
<rect x="725.771" y="705.057" width="524.543" height="524.543" rx="262.272" transform="rotate(180 725.771 705.057)" stroke="#E0E0E0" stroke-opacity="0.1" stroke-width="0.5"/>
<rect x="0.367554" y="345.573" width="926.946" height="194.427" fill="url(#paint3_linear_0_1)" fill-opacity="0.08"/>
<defs>
<linearGradient id="paint0_linear_0_1" x1="1593.87" y1="1081.27" x2="1514.97" y2="1160.16" gradientUnits="userSpaceOnUse">
<stop stop-color="#D9D9D9" stop-opacity="0.02"/>
<stop offset="0.565" stop-color="#737373" stop-opacity="0"/>
</linearGradient>
<linearGradient id="paint1_linear_0_1" x1="1875.7" y1="1240.46" x2="1777.14" y2="1339.03" gradientUnits="userSpaceOnUse">
<stop stop-color="#D9D9D9" stop-opacity="0.02"/>
<stop offset="0.565" stop-color="#737373" stop-opacity="0"/>
</linearGradient>
<linearGradient id="paint2_linear_0_1" x1="1302.31" y1="916.581" x2="1243.76" y2="975.128" gradientUnits="userSpaceOnUse">
<stop stop-color="#D9D9D9" stop-opacity="0.02"/>
<stop offset="0.565" stop-color="#737373" stop-opacity="0"/>
</linearGradient>
<linearGradient id="paint3_linear_0_1" x1="463.841" y1="540" x2="463.841" y2="345.573" gradientUnits="userSpaceOnUse">
<stop stop-color="#D9D9D9"/>
<stop offset="1" stop-opacity="0"/>
</linearGradient>
</defs>
</svg>
