<svg width="15" height="14" viewBox="0 0 15 14" fill="none" xmlns="http://www.w3.org/2000/svg">
<path d="M12.7342 4.88939C13.4093 4.20205 13.9631 3.41514 14.3969 2.57735C14.4143 2.54271 14.5997 2.13464 14.7245 1.85863C14.7991 1.6941 14.8376 1.51659 14.8376 1.33799V1.12475C14.8376 0.919096 14.5216 0.883376 14.468 1.08254C14.4354 1.20377 14.4132 1.28603 14.4097 1.29794C14.4097 1.29794 14.3362 1.51009 14.3258 1.53607C14.3258 1.53607 14.2464 1.74606 14.236 1.77204L14.173 1.92899C14.1625 1.95496 14.1509 1.98094 14.1403 2.00692L14.0727 2.16279C14.0611 2.18877 14.0494 2.21366 14.0377 2.23964C14.0144 2.29051 13.9911 2.34247 13.9666 2.39334C13.5807 3.20948 13.077 3.98124 12.4544 4.65991C12.1431 4.99979 11.8015 5.31585 11.4307 5.59945C11.0599 5.88305 10.66 6.13415 10.2344 6.34304C9.81001 6.55199 9.35998 6.71757 8.89357 6.83233C8.66039 6.88966 8.42371 6.93407 8.18468 6.96437C8.01328 6.9871 7.84074 7.00117 7.667 7.00983C7.65183 7.00983 7.6355 7.01093 7.62038 7.01093C7.60521 7.01093 7.58889 7.00983 7.57372 7.00983C7.39997 7.00117 7.22743 6.9871 7.05604 6.96437C6.817 6.93407 6.58032 6.88861 6.34714 6.83233C5.88074 6.71757 5.43071 6.55199 5.0063 6.34304C4.58189 6.13415 4.18081 5.88305 3.81003 5.59945C3.43926 5.31585 3.09764 4.99871 2.78633 4.65991C2.16372 3.98016 1.66002 3.20948 1.2741 2.39334C1.24961 2.34247 1.22629 2.29051 1.20297 2.23964C1.19132 2.21366 1.17965 2.18877 1.16799 2.16279L1.10037 2.00692C1.08871 1.98094 1.07822 1.95496 1.06772 1.92899L1.00709 1.77312C0.996602 1.74714 0.917315 1.53716 0.917315 1.53716C0.907987 1.51117 0.833367 1.29902 0.833367 1.29902C0.829867 1.28711 0.807716 1.20485 0.77507 1.08362C0.721435 0.883376 0.405463 0.919096 0.405463 1.12475V1.33799C0.405463 1.51659 0.44394 1.6941 0.51856 1.85863C0.643317 2.13356 0.828701 2.54271 0.84619 2.57735C1.27992 3.41514 1.83375 4.20205 2.50884 4.88939C2.84696 5.23251 3.21424 5.55074 3.61066 5.83433C3.84152 5.99886 4.0817 6.15147 4.33122 6.29112C4.21928 6.2424 4.10852 6.19153 3.99892 6.13851C3.61299 5.95124 3.24222 5.73691 2.88894 5.49986C2.53565 5.2639 2.19986 5.0052 1.88039 4.73027C1.84075 4.69563 1.80111 4.66099 1.76146 4.62636C1.72182 4.59172 1.68218 4.556 1.64487 4.52136C1.56791 4.451 1.49329 4.37957 1.421 4.30597C1.3837 4.26916 1.34872 4.23128 1.31257 4.19447C1.27759 4.15659 1.24145 4.11871 1.20647 4.08082C1.13651 4.00397 1.06889 3.92604 1.00243 3.84702C0.870675 3.69007 0.745919 3.52988 0.628159 3.36427C0.561701 3.27118 0.404297 3.31447 0.404297 3.42705V3.50498C0.404297 3.68466 0.46959 3.85893 0.590849 3.99964C0.617666 4.03103 0.644483 4.06242 0.672466 4.09273C0.744753 4.17391 0.818211 4.25401 0.893997 4.33302C0.931305 4.37199 0.970951 4.41096 1.00826 4.44992C1.0479 4.48781 1.08638 4.52678 1.12602 4.56466C1.2053 4.64043 1.28692 4.71403 1.37087 4.78656C1.41284 4.82336 1.45482 4.858 1.49679 4.89263C1.53877 4.92727 1.58074 4.96191 1.62388 4.99654C1.96317 5.27039 2.31995 5.52801 2.69422 5.76181C3.06733 5.9956 3.45909 6.2067 3.86484 6.38851C4.08753 6.4892 4.31606 6.58013 4.54691 6.66239C4.10502 6.56711 3.66779 6.45024 3.24106 6.3106C3.15127 6.28246 3.06383 6.25106 2.97522 6.22077C2.93091 6.2056 2.88777 6.18938 2.84346 6.1731L2.71171 6.12444C2.53799 6.05624 2.36542 5.98694 2.19753 5.91008C2.0273 5.83543 1.8629 5.75207 1.69967 5.66764L1.57841 5.60161C1.55859 5.59079 1.5376 5.57996 1.51778 5.56805L1.45832 5.53342C1.41867 5.51069 1.37903 5.48796 1.34055 5.46414L1.22513 5.39162C1.18665 5.36781 1.14817 5.34291 1.11086 5.31694L1.05373 5.27905C1.03508 5.26606 1.01642 5.25416 0.997763 5.24008L0.888164 5.16107C0.869513 5.14808 0.852023 5.13401 0.834534 5.12102L0.727263 5.03875C0.709774 5.02469 0.692289 5.01061 0.675964 4.99654C0.663138 4.98571 0.619998 4.94783 0.572194 4.90562C0.509233 4.84933 0.405463 4.89047 0.405463 4.97056V4.98572C0.405463 5.1654 0.495241 5.33426 0.649146 5.4425L0.652644 5.44466L0.772737 5.52584C0.79256 5.53991 0.812378 5.55182 0.833367 5.56481L0.895164 5.60269C0.935971 5.62867 0.976779 5.65465 1.01875 5.67846L1.14351 5.75207C1.18548 5.77588 1.22746 5.79863 1.2706 5.82136L1.33356 5.85596C1.35454 5.86682 1.3767 5.87764 1.39768 5.88956L1.52594 5.95555C1.69967 6.03997 1.87456 6.12118 2.05295 6.19478C2.23017 6.27054 2.4109 6.33764 2.59278 6.40258L2.7292 6.44914C2.77467 6.46431 2.82014 6.48054 2.86678 6.49461C2.95889 6.52385 3.04984 6.55414 3.14311 6.58013C3.51738 6.69158 3.89748 6.78466 4.27991 6.86372C4.06421 6.8464 3.84851 6.82692 3.63281 6.80634C3.28886 6.77385 2.94607 6.73599 2.60328 6.69268C2.26165 6.64937 1.92003 6.60065 1.5819 6.54332C1.41284 6.51518 1.24378 6.48379 1.07705 6.45024C0.949961 6.42426 0.65964 6.35606 0.504569 6.31816C0.454433 6.30624 0.406629 6.34089 0.406629 6.38851C0.406629 6.53466 0.516228 6.66239 0.670134 6.69379C0.791393 6.71867 0.926643 6.74571 1.00942 6.76088C1.18199 6.79117 1.35454 6.81826 1.52827 6.84315C1.87456 6.89292 2.22085 6.93407 2.56713 6.96872C2.91459 7.00442 3.26087 7.03256 3.60833 7.05745C3.81353 7.07152 4.01874 7.08559 4.22395 7.0964C4.43382 7.10832 4.64252 7.11808 4.85239 7.1278C4.64252 7.13646 4.43382 7.14727 4.22395 7.15919C4.01874 7.17111 3.81353 7.18407 3.60833 7.19814C3.26087 7.22308 2.91342 7.25227 2.56713 7.28692C2.22085 7.32157 1.87339 7.36267 1.52827 7.4125C1.35571 7.43738 1.18199 7.46442 1.00942 7.49476C0.926643 7.50883 0.791393 7.53587 0.670134 7.56185C0.515063 7.5954 0.405463 7.72208 0.405463 7.86819C0.405463 7.9158 0.454433 7.95045 0.503403 7.93853C0.65964 7.90063 0.948794 7.83249 1.07588 7.8065C1.24262 7.77295 1.41168 7.74156 1.58074 7.71342C1.91887 7.65604 2.26049 7.60732 2.60211 7.56401C2.94374 7.52075 3.28769 7.48395 3.63164 7.45035C3.84735 7.42982 4.06304 7.41034 4.27875 7.39302C3.89632 7.47093 3.51622 7.56511 3.14195 7.67662C3.04867 7.70255 2.95773 7.73395 2.86562 7.76209C2.81898 7.77616 2.77351 7.79243 2.72803 7.80755L2.59162 7.85412C2.4109 7.92016 2.22901 7.98725 2.05178 8.06196C1.87339 8.13556 1.6985 8.21672 1.52477 8.30114L1.39652 8.36719C1.37553 8.378 1.35338 8.38882 1.33239 8.40073L1.26943 8.43538C1.22746 8.45811 1.18432 8.4819 1.14234 8.50463L1.01759 8.57823C0.975612 8.60207 0.934805 8.62805 0.893997 8.65399L0.832201 8.69299C0.811211 8.70596 0.791393 8.71898 0.77157 8.73195L0.651479 8.81311L0.647981 8.81532C0.495241 8.92352 0.405463 9.0924 0.405463 9.27206V9.28723C0.405463 9.36734 0.509233 9.40845 0.572194 9.35327C0.619998 9.31101 0.663138 9.27316 0.675964 9.26234C0.693451 9.24827 0.709774 9.2342 0.727263 9.22013L0.834534 9.13787C0.852023 9.1238 0.869513 9.11078 0.888164 9.09781L0.997763 9.0188C1.01642 9.00578 1.03508 8.99282 1.05373 8.9798L1.11086 8.94194C1.14817 8.91706 1.18548 8.89107 1.22513 8.86724L1.34055 8.79474C1.3802 8.7709 1.41984 8.74817 1.45832 8.72544L1.51778 8.69079C1.5376 8.67998 1.55742 8.66916 1.57841 8.65724L1.69967 8.59125C1.8629 8.50678 2.0273 8.42347 2.19753 8.34876C2.36542 8.2719 2.53915 8.20265 2.71171 8.13446L2.84346 8.08574C2.88777 8.06952 2.93091 8.0533 2.97522 8.03812C3.06383 8.00783 3.15127 7.97534 3.24106 7.9483C3.66779 7.80865 4.10502 7.69284 4.54691 7.5965C4.31489 7.67877 4.08753 7.7697 3.86484 7.87034C3.45909 8.05219 3.06849 8.26324 2.69422 8.49707C2.31995 8.73085 1.96434 8.98846 1.62388 9.26234C1.5819 9.29694 1.53877 9.33159 1.49679 9.36624C1.45482 9.40089 1.41284 9.43554 1.37087 9.47234C1.28692 9.54484 1.2053 9.61844 1.12602 9.6942C1.08638 9.7321 1.04674 9.76996 1.00826 9.80896C0.969784 9.84792 0.931305 9.88687 0.893997 9.92583C0.818211 10.0049 0.744753 10.0849 0.672466 10.1662C0.644483 10.1975 0.617666 10.2278 0.590849 10.2592C0.470756 10.3999 0.405463 10.5742 0.405463 10.755V10.8329C0.405463 10.9455 0.561701 10.9888 0.629326 10.8957C0.747086 10.7301 0.871841 10.5688 1.0036 10.4129C1.07005 10.3339 1.13768 10.256 1.20764 10.1791C1.24262 10.1402 1.27759 10.1034 1.31374 10.0655C1.34988 10.0287 1.38486 9.99077 1.42217 9.95397C1.49446 9.88036 1.57025 9.80896 1.64603 9.73861C1.68334 9.70397 1.72299 9.66821 1.76263 9.63362C1.80227 9.59897 1.84191 9.56432 1.88155 9.52967C2.20102 9.25473 2.53799 8.99607 2.8901 8.76009C3.24338 8.52411 3.61415 8.3087 4.00009 8.12144C4.10969 8.06842 4.22045 8.01754 4.33238 7.96883C4.08287 8.10737 3.84268 8.26109 3.61183 8.42562C3.21424 8.70922 2.84696 9.02746 2.51 9.37055C1.83375 10.0568 1.28109 10.8437 0.84619 11.6815C0.828701 11.7161 0.643317 12.1242 0.51856 12.4003C0.44394 12.5648 0.405463 12.7412 0.405463 12.9209V13.1341C0.405463 13.3398 0.721435 13.3755 0.77507 13.1763C0.807716 13.0551 0.829867 12.9729 0.833367 12.9609C0.833367 12.9609 0.90682 12.7488 0.917315 12.7228C0.917315 12.7228 0.996602 12.5128 1.00709 12.4868L1.07005 12.3299C1.08055 12.3039 1.09221 12.2779 1.1027 12.2519L1.17033 12.0961C1.18199 12.0701 1.19364 12.0452 1.2053 12.0192C1.22862 11.9683 1.25194 11.9164 1.27643 11.8656C1.66236 11.0494 2.16604 10.2776 2.78866 9.59897C3.09997 9.25909 3.4416 8.94299 3.81237 8.65945C4.18314 8.37585 4.58306 8.1247 5.00863 7.9158C5.43306 7.70691 5.88309 7.54128 6.3495 7.42656C6.58267 7.36918 6.81936 7.32482 7.05839 7.29448C7.22978 7.27175 7.40233 7.25768 7.57607 7.24906C7.59119 7.24906 7.60751 7.24796 7.62269 7.24796C7.63786 7.24796 7.65418 7.24906 7.66935 7.24906C7.84305 7.25768 8.01564 7.27175 8.18703 7.29448C8.42601 7.32482 8.6627 7.37029 8.89592 7.42656C9.36228 7.54128 9.81236 7.70691 10.2368 7.9158C10.6612 8.1247 11.0622 8.37585 11.433 8.65945C11.8038 8.94299 12.1454 9.26014 12.4567 9.59897C13.0794 10.2787 13.583 11.0494 13.969 11.8656C13.9934 11.9164 14.0168 11.9683 14.0401 12.0192C14.0517 12.0452 14.0634 12.0701 14.0751 12.0961L14.1427 12.2519C14.1544 12.2779 14.1648 12.3039 14.1753 12.3299L14.2383 12.4868C14.2488 12.5128 14.3281 12.7228 14.3281 12.7228C14.3374 12.7488 14.412 12.9609 14.412 12.9609C14.4155 12.9729 14.4377 13.0551 14.4703 13.1763C14.5239 13.3755 14.8399 13.3398 14.8399 13.1341V12.9209C14.8399 12.7423 14.8014 12.5648 14.7268 12.4003C14.602 12.1253 14.4167 11.7161 14.3992 11.6815C13.9654 10.8437 13.4116 10.0568 12.7365 9.36949C12.3984 9.02636 12.0311 8.70812 11.6347 8.42452C11.4038 8.26004 11.1637 8.10737 10.9142 7.96777C11.0261 8.01649 11.1369 8.06737 11.2465 8.12039C11.6324 8.30765 12.0031 8.52195 12.3564 8.75899C12.7097 8.99497 13.0455 9.25368 13.365 9.52862C13.4047 9.56322 13.4443 9.59787 13.4839 9.63251C13.5236 9.66716 13.5632 9.70286 13.6005 9.73751C13.6774 9.80786 13.7521 9.87931 13.8244 9.95291C13.8617 9.98972 13.8967 10.0276 13.9328 10.0644C13.9678 10.1023 14.004 10.1402 14.0389 10.178C14.1088 10.2549 14.1765 10.3328 14.2429 10.4119C14.3747 10.5688 14.4994 10.729 14.6172 10.8946C14.6837 10.9877 14.8411 10.9444 14.8411 10.8318V10.7539C14.8411 10.5742 14.7758 10.3999 14.6545 10.2592C14.6277 10.2278 14.6009 10.1965 14.5729 10.1662C14.5006 10.0849 14.4272 10.0049 14.3514 9.92583C14.3141 9.88582 14.2744 9.84792 14.2371 9.80896C14.1975 9.77106 14.159 9.7321 14.1194 9.6942C14.0401 9.61844 13.9584 9.54484 13.8745 9.47234C13.8326 9.43554 13.7906 9.40089 13.7486 9.36624C13.7066 9.33159 13.6646 9.29694 13.6215 9.26234C13.2822 8.98846 12.9254 8.73085 12.5512 8.49707C12.178 8.26324 11.7863 8.05219 11.3806 7.87034C11.1579 7.7697 10.9293 7.67877 10.6985 7.5965C11.1404 7.69174 11.5776 7.80865 12.0043 7.9483C12.0941 7.97644 12.1815 8.00783 12.2702 8.03812C12.3145 8.0533 12.3576 8.06952 12.4019 8.08574L12.5337 8.13446C12.7074 8.20265 12.88 8.2719 13.0479 8.34876C13.2181 8.42347 13.3825 8.50678 13.5457 8.59125L13.667 8.65724C13.6868 8.66806 13.7078 8.67893 13.7276 8.69079L13.787 8.72544C13.8267 8.74817 13.8664 8.7709 13.9048 8.79474L14.0203 8.86724C14.0587 8.89107 14.0972 8.91596 14.1345 8.94194L14.1917 8.9798C14.2103 8.99282 14.229 9.00473 14.2476 9.0188L14.3572 9.09781C14.3759 9.11078 14.3933 9.12485 14.4109 9.13787L14.5181 9.22013C14.5356 9.2342 14.5531 9.24827 14.5694 9.26234C14.5823 9.27316 14.6254 9.31101 14.6732 9.35327C14.7361 9.40845 14.8399 9.36734 14.8399 9.28723V9.27206C14.8399 9.0924 14.7501 8.92352 14.5962 8.81532L14.5927 8.81311L14.4727 8.73195C14.4528 8.71788 14.433 8.70596 14.412 8.69299L14.3502 8.65399C14.3094 8.62805 14.2686 8.60207 14.2266 8.57823L14.1019 8.50463C14.0599 8.48085 14.0179 8.45811 13.9748 8.43538L13.9118 8.40073C13.8908 8.38992 13.8687 8.3791 13.8477 8.36719L13.7195 8.30114C13.5457 8.21672 13.3708 8.13556 13.1924 8.06196C13.0152 7.98615 12.8345 7.91906 12.6526 7.85412L12.5162 7.80755C12.4707 7.79243 12.4252 7.77616 12.3786 7.76209C12.2865 7.73289 12.1956 7.70255 12.1023 7.67662C11.728 7.56511 11.3479 7.47203 10.9655 7.39302C11.1812 7.41034 11.3969 7.42982 11.6126 7.45035C11.9565 7.48284 12.2993 7.52075 12.6421 7.56401C12.9837 7.60732 13.3253 7.65604 13.6635 7.71342C13.8326 7.74156 14.0016 7.77295 14.1683 7.8065C14.2954 7.83249 14.5857 7.90063 14.7408 7.93853C14.791 7.95045 14.8388 7.9158 14.8388 7.86819C14.8388 7.72208 14.7292 7.59435 14.5753 7.56296C14.454 7.53802 14.3187 7.51098 14.236 7.49581C14.0634 7.46552 13.8908 7.43848 13.7171 7.41355C13.3708 7.36378 13.0245 7.32267 12.6782 7.28802C12.3308 7.25227 11.9845 7.22413 11.6371 7.19925C11.4318 7.18518 11.2266 7.17111 11.0214 7.16029C10.8116 7.14837 10.6029 7.13866 10.393 7.1289C10.6029 7.12023 10.8116 7.10942 11.0214 7.0975C11.2266 7.08559 11.4318 7.07262 11.6371 7.05855C11.9845 7.03366 12.332 7.00442 12.6782 6.96977C13.0245 6.93512 13.372 6.89402 13.7171 6.8442C13.8897 6.81931 14.0634 6.79227 14.236 6.76198C14.3187 6.74786 14.454 6.72082 14.5753 6.69484C14.7292 6.66344 14.8388 6.53681 14.8388 6.38961C14.8388 6.34199 14.7898 6.30734 14.7408 6.31926C14.5846 6.35711 14.2954 6.42531 14.1683 6.45129C14.0016 6.48484 13.8326 6.51624 13.6635 6.54437C13.3253 6.60176 12.9837 6.65047 12.6421 6.69379C12.3005 6.73705 11.9565 6.77385 11.6126 6.80739C11.3969 6.82797 11.1812 6.84745 10.9655 6.86478C11.3479 6.78687 11.728 6.69268 12.1023 6.58118C12.1956 6.55524 12.2865 6.52385 12.3786 6.49571C12.4252 6.48159 12.4707 6.46536 12.5162 6.45024L12.6526 6.40368C12.8333 6.33763 13.0152 6.27054 13.1924 6.19584C13.3708 6.12223 13.5457 6.04107 13.7195 5.95665L13.8477 5.89061C13.8687 5.87979 13.8908 5.86898 13.9118 5.85706L13.9748 5.82241C14.0168 5.79863 14.0599 5.77588 14.1019 5.75315L14.2266 5.67954C14.2686 5.65573 14.3094 5.62976 14.3502 5.60377L14.412 5.56589C14.433 5.5529 14.4528 5.53991 14.4727 5.52693L14.5927 5.44574L14.5962 5.44358C14.7501 5.33534 14.8399 5.16648 14.8399 4.9868V4.97165C14.8399 4.89155 14.7361 4.85042 14.6732 4.90562C14.6254 4.94783 14.5823 4.98571 14.5694 4.99654C14.5519 5.01061 14.5356 5.02469 14.5181 5.03875L14.4109 5.12102C14.3933 5.13509 14.3759 5.14808 14.3572 5.16107L14.2476 5.24008C14.229 5.25308 14.2103 5.26606 14.1917 5.27905L14.1345 5.31694C14.0972 5.34183 14.0599 5.36781 14.0203 5.39162L13.9048 5.46414C13.8652 5.48796 13.8256 5.51069 13.787 5.53342L13.7276 5.56805C13.7078 5.57888 13.688 5.5897 13.667 5.60161L13.5457 5.66764C13.3825 5.75207 13.2181 5.83543 13.0479 5.91008C12.88 5.98694 12.7062 6.05624 12.5337 6.12444L12.4019 6.1731C12.3576 6.18938 12.3145 6.2056 12.2702 6.22077C12.1815 6.25106 12.0941 6.28351 12.0043 6.3106C11.5776 6.45024 11.1404 6.56606 10.6985 6.66239C10.9305 6.58013 11.1579 6.4892 11.3806 6.38851C11.7863 6.2067 12.1769 5.9956 12.5512 5.76181C12.9254 5.52801 13.281 5.27039 13.6215 4.99654C13.6635 4.96191 13.7066 4.92727 13.7486 4.89263C13.7906 4.858 13.8326 4.82336 13.8745 4.78656C13.9584 4.71403 14.0401 4.64043 14.1194 4.56466C14.159 4.52678 14.1986 4.48889 14.2371 4.44992C14.2756 4.41096 14.3141 4.37199 14.3514 4.33302C14.4272 4.25401 14.5006 4.17391 14.5729 4.09273C14.6009 4.06134 14.6277 4.03103 14.6545 3.99964C14.7758 3.85893 14.8411 3.68466 14.8411 3.50498V3.42705C14.8411 3.31447 14.6849 3.27118 14.6172 3.36427C14.4994 3.52988 14.3747 3.69115 14.2429 3.84702C14.1765 3.92604 14.1088 4.00397 14.0389 4.08082C14.004 4.11979 13.969 4.15659 13.9328 4.19447C13.8967 4.23128 13.8617 4.26916 13.8244 4.30597C13.7521 4.37957 13.6763 4.45209 13.6005 4.52136C13.5632 4.556 13.5236 4.59172 13.4839 4.62636C13.4443 4.66099 13.4047 4.69563 13.365 4.73027C13.0455 5.0052 12.7086 5.2639 12.3564 5.49986C12.0031 5.73583 11.6324 5.95124 11.2465 6.13851C11.1369 6.19153 11.0261 6.2424 10.9142 6.29112C11.1637 6.15257 11.4038 5.99886 11.6347 5.83433C12.03 5.55074 12.3972 5.23251 12.7342 4.88939Z" fill="#C6C6C6"/>
</svg>