<svg width="150" height="26" viewBox="0 0 150 26" fill="none" xmlns="http://www.w3.org/2000/svg">
<path d="M47.4463 19.8159V5.81592H50.0863V11.5959H55.2863V5.81592H57.9263V19.8159H55.2863V13.9959H50.0863V19.8159H47.4463Z" fill="white"/>
<path d="M61.3313 23.8159V21.6159H66.7313C67.1046 21.6159 67.2913 21.4159 67.2913 21.0159V18.5159H66.9313C66.8246 18.7426 66.658 18.9693 66.4313 19.1959C66.2046 19.4226 65.898 19.6093 65.5113 19.7559C65.1246 19.9026 64.6313 19.9759 64.0313 19.9759C63.258 19.9759 62.578 19.8026 61.9913 19.4559C61.418 19.0959 60.9713 18.6026 60.6513 17.9759C60.3313 17.3493 60.1713 16.6293 60.1713 15.8159V9.89592H62.6913V15.6159C62.6913 16.3626 62.8713 16.9226 63.2313 17.2959C63.6046 17.6693 64.1313 17.8559 64.8113 17.8559C65.5846 17.8559 66.1846 17.6026 66.6113 17.0959C67.038 16.5759 67.2513 15.8559 67.2513 14.9359V9.89592H69.7713V21.5759C69.7713 22.2559 69.5713 22.7959 69.1713 23.1959C68.7713 23.6093 68.238 23.8159 67.5713 23.8159H61.3313Z" fill="white"/>
<path d="M72.1755 23.8159V9.89592H74.6555V11.0959H75.0155C75.2422 10.7093 75.5955 10.3693 76.0755 10.0759C76.5555 9.76925 77.2422 9.61592 78.1355 9.61592C78.9355 9.61592 79.6755 9.81592 80.3555 10.2159C81.0355 10.6026 81.5822 11.1759 81.9955 11.9359C82.4088 12.6959 82.6155 13.6159 82.6155 14.6959V15.0159C82.6155 16.0959 82.4088 17.0159 81.9955 17.7759C81.5822 18.5359 81.0355 19.1159 80.3555 19.5159C79.6755 19.9026 78.9355 20.0959 78.1355 20.0959C77.5355 20.0959 77.0288 20.0226 76.6155 19.8759C76.2155 19.7426 75.8888 19.5693 75.6355 19.3559C75.3955 19.1293 75.2022 18.9026 75.0555 18.6759H74.6955V23.8159H72.1755ZM77.3755 17.8959C78.1622 17.8959 78.8088 17.6493 79.3155 17.1559C79.8355 16.6493 80.0955 15.9159 80.0955 14.9559V14.7559C80.0955 13.7959 79.8355 13.0693 79.3155 12.5759C78.7955 12.0693 78.1488 11.8159 77.3755 11.8159C76.6022 11.8159 75.9555 12.0693 75.4355 12.5759C74.9155 13.0693 74.6555 13.7959 74.6555 14.7559V14.9559C74.6555 15.9159 74.9155 16.6493 75.4355 17.1559C75.9555 17.6493 76.6022 17.8959 77.3755 17.8959Z" fill="white"/>
<path d="M89.0494 20.0959C88.0627 20.0959 87.1894 19.8893 86.4294 19.4759C85.6827 19.0493 85.0961 18.4559 84.6694 17.6959C84.2561 16.9226 84.0494 16.0159 84.0494 14.9759V14.7359C84.0494 13.6959 84.2561 12.7959 84.6694 12.0359C85.0827 11.2626 85.6627 10.6693 86.4094 10.2559C87.1561 9.82925 88.0227 9.61592 89.0094 9.61592C89.9827 9.61592 90.8294 9.83592 91.5494 10.2759C92.2694 10.7026 92.8294 11.3026 93.2294 12.0759C93.6294 12.8359 93.8294 13.7226 93.8294 14.7359V15.5959H86.6094C86.6361 16.2759 86.8894 16.8293 87.3694 17.2559C87.8494 17.6826 88.4361 17.8959 89.1294 17.8959C89.8361 17.8959 90.3561 17.7426 90.6894 17.4359C91.0227 17.1293 91.2761 16.7893 91.4494 16.4159L93.5094 17.4959C93.3227 17.8426 93.0494 18.2226 92.6894 18.6359C92.3427 19.0359 91.8761 19.3826 91.2894 19.6759C90.7027 19.9559 89.9561 20.0959 89.0494 20.0959ZM86.6294 13.7159H91.2694C91.2161 13.1426 90.9827 12.6826 90.5694 12.3359C90.1694 11.9893 89.6427 11.8159 88.9894 11.8159C88.3094 11.8159 87.7694 11.9893 87.3694 12.3359C86.9694 12.6826 86.7227 13.1426 86.6294 13.7159Z" fill="white"/>
<path d="M95.6724 19.8159V9.89592H98.1524V11.0159H98.5124C98.6591 10.6159 98.8991 10.3226 99.2324 10.1359C99.5791 9.94925 99.9791 9.85592 100.432 9.85592H101.632V12.0959H100.392C99.7524 12.0959 99.2257 12.2693 98.8124 12.6159C98.3991 12.9493 98.1924 13.4693 98.1924 14.1759V19.8159H95.6724Z" fill="white"/>
<path d="M107.088 20.0959C105.794 20.0959 104.734 19.8159 103.908 19.2559C103.081 18.6959 102.581 17.8959 102.408 16.8559L104.728 16.2559C104.821 16.7226 104.974 17.0893 105.188 17.3559C105.414 17.6226 105.688 17.8159 106.008 17.9359C106.341 18.0426 106.701 18.0959 107.088 18.0959C107.674 18.0959 108.108 17.9959 108.388 17.7959C108.668 17.5826 108.808 17.3226 108.808 17.0159C108.808 16.7093 108.674 16.4759 108.408 16.3159C108.141 16.1426 107.714 16.0026 107.128 15.8959L106.568 15.7959C105.874 15.6626 105.241 15.4826 104.668 15.2559C104.094 15.0159 103.634 14.6893 103.288 14.2759C102.941 13.8626 102.768 13.3293 102.768 12.6759C102.768 11.6893 103.128 10.9359 103.848 10.4159C104.568 9.88258 105.514 9.61592 106.688 9.61592C107.794 9.61592 108.714 9.86258 109.448 10.3559C110.181 10.8493 110.661 11.4959 110.888 12.2959L108.548 13.0159C108.441 12.5093 108.221 12.1493 107.888 11.9359C107.568 11.7226 107.168 11.6159 106.688 11.6159C106.208 11.6159 105.841 11.7026 105.588 11.8759C105.334 12.0359 105.208 12.2626 105.208 12.5559C105.208 12.8759 105.341 13.1159 105.608 13.2759C105.874 13.4226 106.234 13.5359 106.688 13.6159L107.248 13.7159C107.994 13.8493 108.668 14.0293 109.268 14.2559C109.881 14.4693 110.361 14.7826 110.708 15.1959C111.068 15.5959 111.248 16.1426 111.248 16.8359C111.248 17.8759 110.868 18.6826 110.108 19.2559C109.361 19.8159 108.354 20.0959 107.088 20.0959Z" fill="white"/>
<path d="M117.716 20.0959C116.756 20.0959 115.883 19.8959 115.096 19.4959C114.323 19.0959 113.709 18.5159 113.256 17.7559C112.803 16.9959 112.576 16.0759 112.576 14.9959V14.7159C112.576 13.6359 112.803 12.7159 113.256 11.9559C113.709 11.1959 114.323 10.6159 115.096 10.2159C115.883 9.81592 116.756 9.61592 117.716 9.61592C118.663 9.61592 119.476 9.78258 120.156 10.1159C120.836 10.4493 121.383 10.9093 121.796 11.4959C122.223 12.0693 122.503 12.7226 122.636 13.4559L120.196 13.9759C120.143 13.5759 120.023 13.2159 119.836 12.8959C119.649 12.5759 119.383 12.3226 119.036 12.1359C118.703 11.9493 118.283 11.8559 117.776 11.8559C117.269 11.8559 116.809 11.9693 116.396 12.1959C115.996 12.4093 115.676 12.7359 115.436 13.1759C115.209 13.6026 115.096 14.1293 115.096 14.7559V14.9559C115.096 15.5826 115.209 16.1159 115.436 16.5559C115.676 16.9826 115.996 17.3093 116.396 17.5359C116.809 17.7493 117.269 17.8559 117.776 17.8559C118.536 17.8559 119.109 17.6626 119.496 17.2759C119.896 16.8759 120.149 16.3559 120.256 15.7159L122.696 16.2959C122.523 17.0026 122.223 17.6493 121.796 18.2359C121.383 18.8093 120.836 19.2626 120.156 19.5959C119.476 19.9293 118.663 20.0959 117.716 20.0959Z" fill="white"/>
<path d="M127.455 20.0959C126.748 20.0959 126.115 19.9759 125.555 19.7359C124.995 19.4826 124.548 19.1226 124.215 18.6559C123.895 18.1759 123.735 17.5959 123.735 16.9159C123.735 16.2359 123.895 15.6693 124.215 15.2159C124.548 14.7493 125.001 14.4026 125.575 14.1759C126.161 13.9359 126.828 13.8159 127.575 13.8159H130.295V13.2559C130.295 12.7893 130.148 12.4093 129.855 12.1159C129.561 11.8093 129.095 11.6559 128.455 11.6559C127.828 11.6559 127.361 11.8026 127.055 12.0959C126.748 12.3759 126.548 12.7426 126.455 13.1959L124.135 12.4159C124.295 11.9093 124.548 11.4493 124.895 11.0359C125.255 10.6093 125.728 10.2693 126.315 10.0159C126.915 9.74925 127.641 9.61592 128.495 9.61592C129.801 9.61592 130.835 9.94258 131.595 10.5959C132.355 11.2493 132.735 12.1959 132.735 13.4359V17.1359C132.735 17.5359 132.921 17.7359 133.295 17.7359H134.095V19.8159H132.415C131.921 19.8159 131.515 19.6959 131.195 19.4559C130.875 19.2159 130.715 18.8959 130.715 18.4959V18.4759H130.335C130.281 18.6359 130.161 18.8493 129.975 19.1159C129.788 19.3693 129.495 19.5959 129.095 19.7959C128.695 19.9959 128.148 20.0959 127.455 20.0959ZM127.895 18.0559C128.601 18.0559 129.175 17.8626 129.615 17.4759C130.068 17.0759 130.295 16.5493 130.295 15.8959V15.6959H127.755C127.288 15.6959 126.921 15.7959 126.655 15.9959C126.388 16.1959 126.255 16.4759 126.255 16.8359C126.255 17.1959 126.395 17.4893 126.675 17.7159C126.955 17.9426 127.361 18.0559 127.895 18.0559Z" fill="white"/>
<path d="M135.537 19.8159V5.81592H138.057V19.8159H135.537Z" fill="white"/>
<path d="M144.97 20.0959C143.983 20.0959 143.11 19.8893 142.35 19.4759C141.603 19.0493 141.016 18.4559 140.59 17.6959C140.176 16.9226 139.97 16.0159 139.97 14.9759V14.7359C139.97 13.6959 140.176 12.7959 140.59 12.0359C141.003 11.2626 141.583 10.6693 142.33 10.2559C143.076 9.82925 143.943 9.61592 144.93 9.61592C145.903 9.61592 146.75 9.83592 147.47 10.2759C148.19 10.7026 148.75 11.3026 149.15 12.0759C149.55 12.8359 149.75 13.7226 149.75 14.7359V15.5959H142.53C142.556 16.2759 142.81 16.8293 143.29 17.2559C143.77 17.6826 144.356 17.8959 145.05 17.8959C145.756 17.8959 146.276 17.7426 146.61 17.4359C146.943 17.1293 147.196 16.7893 147.37 16.4159L149.43 17.4959C149.243 17.8426 148.97 18.2226 148.61 18.6359C148.263 19.0359 147.796 19.3826 147.21 19.6759C146.623 19.9559 145.876 20.0959 144.97 20.0959ZM142.55 13.7159H147.19C147.136 13.1426 146.903 12.6826 146.49 12.3359C146.09 11.9893 145.563 11.8159 144.91 11.8159C144.23 11.8159 143.69 11.9893 143.29 12.3359C142.89 12.6826 142.643 13.1426 142.55 13.7159Z" fill="white"/>
<path d="M28.5077 2.86592V0.515918L28.2577 0.315918C27.9277 0.465918 27.7877 0.975918 27.6677 1.38592C27.6422 1.47737 27.6122 1.56748 27.5777 1.65592C26.2636 5.47424 23.6333 8.70011 20.1577 10.7559C18.4097 11.7668 16.4363 12.3237 14.4177 12.3759C14.0302 12.3784 13.6429 12.3584 13.2577 12.3159C10.7648 11.9691 8.41921 10.9297 6.48769 9.31592C4.61047 7.75677 3.08958 5.81303 2.02769 3.61592C1.77769 3.10592 1.54769 2.61592 1.35769 2.08592C1.31546 1.93128 1.28207 1.77436 1.25769 1.61592C1.19158 1.19446 1.01569 0.797838 0.74769 0.465918C0.68997 0.396171 0.613702 0.34417 0.52769 0.315918L0.25769 0.505918V3.02592C0.617248 3.81717 1.03159 4.58236 1.49769 5.31592C2.41694 6.8 3.5414 8.14666 4.83769 9.31592C4.21264 8.88597 3.61173 8.42193 3.03769 7.92592C2.4101 7.38429 1.83122 6.78868 1.30769 6.14592C1.24207 6.07029 1.18192 5.99009 1.12769 5.90592C0.972894 5.6695 0.791732 5.45143 0.58769 5.25592L0.25769 5.41592V6.77592L0.30769 6.90592L0.75769 7.31592L0.91769 7.47592C1.57162 8.13992 2.27351 8.75492 3.01769 9.31592C3.88708 9.96158 4.80668 10.5367 5.76769 11.0359C4.60351 10.6748 3.47801 10.1991 2.40769 9.61592C2.01143 9.39721 1.62752 9.15684 1.25769 8.89592C1.17395 8.83031 1.09383 8.76021 1.01769 8.68592C0.875641 8.55322 0.725341 8.42964 0.56769 8.31592L0.25769 8.48592V9.54592C0.32448 9.62602 0.401856 9.69667 0.48769 9.75592C0.869462 10.0221 1.27058 10.2594 1.68769 10.4659C2.76575 11.0396 3.89793 11.5052 5.06769 11.8559C4.34769 11.7759 3.65769 11.6859 2.97769 11.5859C2.29769 11.4859 1.61769 11.3159 0.94769 11.1959C0.796308 11.1542 0.642742 11.1208 0.48769 11.0959L0.25769 11.3159V12.0059L0.38769 12.1859C0.772967 12.3112 1.17308 12.3852 1.57769 12.4059H1.82769C2.62769 12.5359 3.42769 12.6259 4.25769 12.7259L5.56769 12.8359C5.11769 12.8359 4.68769 12.9059 4.25769 12.9559C3.45769 13.0359 2.63769 13.1359 1.82769 13.2559H1.52769C1.13991 13.2807 0.756846 13.3546 0.38769 13.4759L0.25769 13.7059V14.3759L0.47769 14.5659C0.626702 14.5488 0.773931 14.5187 0.91769 14.4759C1.58436 14.3226 2.28436 14.1926 3.01769 14.0859C3.68769 13.9859 4.37769 13.8959 5.09769 13.8159C3.9336 14.1735 2.80538 14.6388 1.72769 15.2059C1.30398 15.4099 0.899079 15.6508 0.51769 15.9259C0.44251 15.9869 0.37229 16.0538 0.30769 16.1259L0.25769 16.3159V17.2559L0.56769 17.4159C0.725341 17.3022 0.875641 17.1786 1.01769 17.0459C1.0866 16.9466 1.16717 16.856 1.25769 16.7759C1.62218 16.5152 2.00296 16.2781 2.39769 16.0659C3.4688 15.4817 4.59407 15.0028 5.75769 14.6359C4.85211 15.1108 3.98305 15.6523 3.15769 16.2559C2.40557 16.8006 1.69373 17.3988 1.02769 18.0459L0.86769 18.2059C0.671183 18.386 0.48426 18.5763 0.30769 18.7759V20.3159L0.63769 20.4559C0.814739 20.2863 0.969331 20.0948 1.09769 19.8859C1.16769 19.8059 1.21769 19.7259 1.26769 19.6659C1.78845 19.0364 2.3604 18.4511 2.97769 17.9159C3.58637 17.3844 4.22401 16.8869 4.88769 16.4259C3.75048 17.4341 2.74278 18.5795 1.88769 19.8359C1.27454 20.7129 0.729604 21.6356 0.25769 22.5959V25.1659L0.53769 25.3159C0.88769 25.1559 1.02769 24.6159 1.12769 24.2259C1.12769 24.1259 1.17769 24.0359 1.19769 23.9859C1.36769 23.5359 1.53769 23.0859 1.73769 22.6559C2.8011 20.2735 4.37886 18.1562 6.35769 16.4559C8.4112 14.71 10.9391 13.6166 13.6177 13.3159C13.8977 13.3159 14.1877 13.3159 14.4677 13.3159C16.6985 13.3949 18.8644 14.0869 20.7277 15.3159C24.0425 17.5295 26.5098 20.8006 27.7277 24.5959C27.7976 24.8773 27.9595 25.1272 28.1877 25.3059L28.4877 25.1359V22.6159C28.1755 21.9605 27.8215 21.3258 27.4277 20.7159C26.4771 19.1255 25.294 17.6863 23.9177 16.4459C24.5464 16.8708 25.1476 17.3351 25.7177 17.8359C26.3385 18.3667 26.9169 18.9451 27.4477 19.5659L27.6177 19.8059C27.7822 20.05 27.9697 20.2777 28.1777 20.4859L28.5077 20.3359V18.9359L28.4577 18.8059C28.2777 18.5859 28.0777 18.3859 27.8477 18.1559C27.188 17.4942 26.483 16.8794 25.7377 16.3159C24.8595 15.67 23.9335 15.0916 22.9677 14.5859C24.1392 14.9531 25.2714 15.4354 26.3477 16.0259C26.7424 16.2381 27.1232 16.4752 27.4877 16.7359C27.5702 16.7955 27.6472 16.8625 27.7177 16.9359C27.8672 17.0814 28.0277 17.2151 28.1977 17.3359L28.5077 17.1759V16.3159L28.4577 16.1759C28.3983 16.0839 28.3314 15.997 28.2577 15.9159C27.8709 15.6522 27.4666 15.415 27.0477 15.2059C25.9661 14.6323 24.8306 14.1667 23.6577 13.8159C24.4077 13.8959 25.0977 13.9859 25.7577 14.0859C26.4177 14.1859 27.1577 14.3259 27.8377 14.4759L28.2977 14.5759L28.5277 14.3859V13.6959L28.3977 13.5059C28.0267 13.397 27.6439 13.3332 27.2577 13.3159H26.9277C26.1277 13.1859 25.3177 13.0959 24.4977 13.0059L23.1977 12.8859L24.4977 12.7759C25.3077 12.6859 26.1177 12.5859 26.9277 12.4659H27.2277C27.6191 12.4377 28.0055 12.3604 28.3777 12.2359L28.5077 12.0559V11.3159L28.2677 11.1159L27.8377 11.2159C27.0777 11.3859 26.3177 11.5159 25.7377 11.6059C25.1577 11.6959 24.3877 11.7959 23.6377 11.8859C24.8372 11.5208 25.9992 11.0419 27.1077 10.4559C27.5096 10.2508 27.8942 10.0133 28.2577 9.74592C28.3388 9.68832 28.4126 9.62117 28.4777 9.54592L28.5277 9.41592V8.47592L28.2577 8.31592C28.0891 8.43078 27.9317 8.56137 27.7877 8.70592C27.7115 8.78021 27.6314 8.85031 27.5477 8.91592C27.1779 9.17684 26.7939 9.41721 26.3977 9.63592C25.3375 10.2158 24.2219 10.6881 23.0677 11.0459C23.9637 10.5786 24.8229 10.0437 25.6377 9.44592C26.3986 8.90854 27.1143 8.30988 27.7777 7.65592L27.9477 7.49592C28.1177 7.32592 28.3277 7.12592 28.5077 6.91592L28.5577 6.78592V5.39592L28.2277 5.23592C28.0493 5.41689 27.8886 5.61445 27.7477 5.82592L27.5977 6.03592C27.0719 6.66399 26.5004 7.25227 25.8877 7.79592C25.2664 8.34265 24.6118 8.85029 23.9277 9.31592C24.1977 9.07592 24.4677 8.81592 24.7277 8.54592C26.3201 6.89618 27.6007 4.97182 28.5077 2.86592Z" fill="white"/>
</svg>
