<svg width="6" height="7" viewBox="0 0 6 7" fill="none" xmlns="http://www.w3.org/2000/svg">
<path fill-rule="evenodd" clip-rule="evenodd" d="M1.05368 5.44046C0.83056 5.21734 0.766549 4.877 0.836522 4.43043C0.471276 4.16414 0.275879 3.87822 0.275879 3.56268C0.275879 3.24714 0.471276 2.96122 0.836522 2.69493C0.766549 2.24837 0.83056 1.90803 1.05368 1.68491C1.2768 1.46179 1.61714 1.39777 2.06371 1.46775C2.33 1.1025 2.61592 0.907104 2.93146 0.907104C3.247 0.907104 3.53292 1.1025 3.79921 1.46775C4.24577 1.39777 4.58612 1.46179 4.80924 1.68491C5.03236 1.90803 5.09637 2.24837 5.02639 2.69493C5.39164 2.96122 5.58704 3.24714 5.58704 3.56268C5.58704 3.87822 5.39164 4.16414 5.02639 4.43043C5.09637 4.877 5.03236 5.21734 4.80924 5.44046C4.58612 5.66358 4.24577 5.72759 3.79921 5.65762C3.53292 6.02286 3.247 6.21826 2.93146 6.21826C2.61592 6.21826 2.33 6.02286 2.06371 5.65762C1.61714 5.72759 1.2768 5.66358 1.05368 5.44046ZM2.12334 5.15554C2.22133 5.13456 2.32211 5.1763 2.37656 5.26043C2.58919 5.58896 2.77879 5.73543 2.93146 5.73543C3.08412 5.73543 3.27372 5.58896 3.48635 5.26043C3.54081 5.1763 3.64158 5.13456 3.73958 5.15554C4.12223 5.23749 4.35987 5.207 4.46782 5.09905C4.57577 4.9911 4.60627 4.75346 4.52432 4.3708C4.50333 4.27281 4.54507 4.17203 4.62921 4.11758C4.95773 3.90495 5.1042 3.71535 5.1042 3.56268C5.1042 3.41002 4.95773 3.22042 4.62921 3.00779C4.54507 2.95333 4.50333 2.85256 4.52432 2.75456C4.60627 2.37191 4.57577 2.13427 4.46782 2.02632C4.35987 1.91837 4.12223 1.88787 3.73958 1.96982C3.64158 1.99081 3.54081 1.94907 3.48635 1.86493C3.27372 1.53641 3.08412 1.38994 2.93146 1.38994C2.77879 1.38994 2.58919 1.53641 2.37656 1.86493C2.32211 1.94907 2.22133 1.99081 2.12334 1.96982C1.74068 1.88787 1.50304 1.91837 1.39509 2.02632C1.28714 2.13427 1.25665 2.37191 1.3386 2.75456C1.35958 2.85256 1.31784 2.95333 1.23371 3.00779C0.905183 3.22042 0.758711 3.41002 0.758711 3.56268C0.758711 3.71535 0.905183 3.90495 1.23371 4.11758C1.31784 4.17203 1.35958 4.27281 1.3386 4.3708C1.25665 4.75346 1.28714 4.9911 1.39509 5.09905C1.50304 5.207 1.74068 5.23749 2.12334 5.15554ZM2.69004 3.7041L3.72642 2.66773L4.06783 3.00914L2.69004 4.38693L1.79509 3.49197L2.1365 3.15056L2.69004 3.7041Z" fill="#FFC422"/>
</svg>
