<svg width="7" height="6" viewBox="0 0 7 6" fill="none" xmlns="http://www.w3.org/2000/svg">
<path fill-rule="evenodd" clip-rule="evenodd" d="M1.59943 4.6199C1.37631 4.39678 1.3123 4.05644 1.38227 3.60988C1.01702 3.34359 0.821625 3.05767 0.821625 2.74213C0.821625 2.42659 1.01702 2.14067 1.38227 1.87438C1.3123 1.42781 1.37631 1.08747 1.59943 0.864349C1.82255 0.641229 2.16289 0.577218 2.60945 0.647191C2.87574 0.281945 3.16166 0.0865479 3.4772 0.0865479C3.79274 0.0865479 4.07866 0.281945 4.34495 0.647191C4.79152 0.577218 5.13186 0.641229 5.35498 0.864349C5.5781 1.08747 5.64211 1.42781 5.57214 1.87438C5.93739 2.14067 6.13278 2.42659 6.13278 2.74213C6.13278 3.05767 5.93739 3.34359 5.57214 3.60988C5.64211 4.05644 5.5781 4.39678 5.35498 4.6199C5.13186 4.84302 4.79152 4.90703 4.34495 4.83706C4.07866 5.20231 3.79274 5.39771 3.4772 5.39771C3.16166 5.39771 2.87574 5.20231 2.60945 4.83706C2.16289 4.90703 1.82255 4.84302 1.59943 4.6199ZM2.66908 4.33499C2.76708 4.314 2.86785 4.35574 2.92231 4.43988C3.13494 4.7684 3.32454 4.91487 3.4772 4.91487C3.62987 4.91487 3.81947 4.7684 4.0321 4.43988C4.08655 4.35574 4.18733 4.314 4.28532 4.33499C4.66798 4.41694 4.90562 4.38644 5.01357 4.27849C5.12152 4.17054 5.15201 3.9329 5.07006 3.55025C5.04908 3.45225 5.09082 3.35148 5.17495 3.29702C5.50348 3.08439 5.64995 2.89479 5.64995 2.74213C5.64995 2.58946 5.50348 2.39986 5.17495 2.18723C5.09082 2.13278 5.04908 2.032 5.07006 1.93401C5.15201 1.55135 5.12152 1.31371 5.01357 1.20576C4.90562 1.09781 4.66798 1.06732 4.28532 1.14927C4.18733 1.17025 4.08655 1.12851 4.0321 1.04438C3.81947 0.715852 3.62987 0.56938 3.4772 0.56938C3.32454 0.56938 3.13494 0.715852 2.92231 1.04438C2.86785 1.12851 2.76708 1.17025 2.66908 1.14927C2.28643 1.06732 2.04879 1.09781 1.94084 1.20576C1.83289 1.31371 1.80239 1.55135 1.88434 1.93401C1.90533 2.032 1.86359 2.13278 1.77945 2.18723C1.45093 2.39986 1.30446 2.58946 1.30446 2.74213C1.30446 2.89479 1.45093 3.08439 1.77945 3.29702C1.86359 3.35148 1.90533 3.45225 1.88434 3.55025C1.80239 3.9329 1.83289 4.17054 1.94084 4.27849C2.04879 4.38644 2.28643 4.41694 2.66908 4.33499ZM3.23579 2.88354L4.27216 1.84717L4.61358 2.18858L3.23579 3.56637L2.34083 2.67142L2.68225 2.33L3.23579 2.88354Z" fill="#64C4FF"/>
</svg>
