<svg width="6" height="6" viewBox="0 0 6 6" fill="none" xmlns="http://www.w3.org/2000/svg">
<path fill-rule="evenodd" clip-rule="evenodd" d="M0.778045 4.65903C0.554925 4.43591 0.490915 4.09556 0.560887 3.649C0.195641 3.38271 0.000244141 3.09679 0.000244141 2.78125C0.000244141 2.46571 0.195641 2.17979 0.560887 1.9135C0.490915 1.46694 0.554925 1.12659 0.778045 0.903472C1.00117 0.680352 1.34151 0.616342 1.78807 0.686315C2.05436 0.321068 2.34028 0.125671 2.65582 0.125671C2.97136 0.125671 3.25728 0.321068 3.52357 0.686315C3.97014 0.616342 4.31048 0.680352 4.5336 0.903472C4.75672 1.12659 4.82073 1.46694 4.75076 1.9135C5.116 2.17979 5.3114 2.46571 5.3114 2.78125C5.3114 3.09679 5.116 3.38271 4.75076 3.649C4.82073 4.09556 4.75672 4.43591 4.5336 4.65903C4.31048 4.88215 3.97014 4.94616 3.52357 4.87618C3.25728 5.24143 2.97136 5.43683 2.65582 5.43683C2.34028 5.43683 2.05436 5.24143 1.78807 4.87618C1.34151 4.94616 1.00117 4.88215 0.778045 4.65903ZM1.8477 4.37411C1.9457 4.35312 2.04647 4.39487 2.10093 4.479C2.31356 4.80752 2.50316 4.954 2.65582 4.954C2.80849 4.954 2.99809 4.80752 3.21072 4.479C3.26517 4.39487 3.36595 4.35312 3.46394 4.37411C3.8466 4.45606 4.08424 4.42556 4.19219 4.31761C4.30014 4.20966 4.33063 3.97202 4.24868 3.58937C4.2277 3.49137 4.26944 3.3906 4.35357 3.33614C4.6821 3.12352 4.82857 2.93391 4.82857 2.78125C4.82857 2.62859 4.6821 2.43898 4.35357 2.22635C4.26944 2.1719 4.2277 2.07113 4.24868 1.97313C4.33063 1.59048 4.30014 1.35284 4.19219 1.24489C4.08424 1.13694 3.8466 1.10644 3.46394 1.18839C3.36595 1.20938 3.26517 1.16763 3.21072 1.0835C2.99809 0.754976 2.80849 0.608504 2.65582 0.608504C2.50316 0.608504 2.31356 0.754976 2.10093 1.0835C2.04647 1.16763 1.9457 1.20938 1.8477 1.18839C1.46505 1.10644 1.22741 1.13694 1.11946 1.24489C1.01151 1.35284 0.981013 1.59048 1.06296 1.97313C1.08395 2.07113 1.04221 2.1719 0.958073 2.22635C0.629549 2.43898 0.483077 2.62859 0.483077 2.78125C0.483077 2.93391 0.629549 3.12352 0.958073 3.33614C1.04221 3.3906 1.08395 3.49137 1.06296 3.58937C0.981013 3.97202 1.01151 4.20966 1.11946 4.31761C1.22741 4.42556 1.46505 4.45606 1.8477 4.37411ZM2.41441 2.92267L3.45078 1.88629L3.7922 2.22771L2.41441 3.6055L1.51945 2.71054L1.86086 2.36913L2.41441 2.92267Z" fill="#64C4FF"/>
</svg>
